#!OML:ASF I:\Actors\actors\Patient Classification 1\Patient 1\Session 1\Subject1.ASF
:FULLY-SPECIFIED
:DEGREES
1717
root 0.668243 17.6837 9.43115 27.6125 8.39015 -9.99724
lowerback 7.95076 0.790426 5.41271
upperback -9.50246 1.93387 0.0442197
thorax -14.8693 0.331555 -3.38361
lowerneck -10.1839 -6.15241 -4.18239
upperneck 23.1787 -9.93261 8.92112
head 9.66729 -4.06385 2.63369
rclavicle 1.03368e-014 1.43125e-014
rhumerus -25.4979 -17.2516 -40.9259
rradius 31.9164
rwrist 11.8669
rhand 57.2671 -43.9076
rfingers 7.12502
rthumb 73.7897 -20.7293
lclavicle 1.03368e-014 1.43125e-014
lhumerus -25.4785 -16.4065 54.915
lradius 49.563
lwrist 24.1772
lhand -7.07504 -10.7673
lfingers 7.12502
lthumb 18.7986 18.3444
rfemur -20.0461 37.4572 12.7549
rtibia -2.28834
rfoot -24.0145 -43.2468
rtoes 22.3362
lfemur -18.0237 -49.2455 9.13024
ltibia -9.84374
lfoot -46.9605 50.2294
ltoes 42.3919
1718
root 0.682141 17.6901 9.45253 27.3041 8.49627 -10.1054
lowerback 7.76598 0.807363 5.47122
upperback -9.45349 1.96125 0.121559
thorax -14.69 0.351465 -3.32865
lowerneck -10.0938 -6.17356 -4.228
upperneck 23.4004 -9.94978 8.81778
head 9.72627 -4.08231 2.60751
rclavicle -2.62396e-014 9.54166e-015
rhumerus -26.8459 -14.3979 -39.226
rradius 34.7726
rwrist 10.4347
rhand 60.3036 -44.0986
rfingers 7.12502
rthumb 74.6642 -10.6054
lclavicle -2.62396e-014 9.54166e-015
lhumerus -26.5784 -19.9278 52.4386
lradius 52.6411
lwrist 27.3631
lhand -2.86418 -10.2965
lfingers 7.12502
lthumb 22.8443 18.3705
rfemur -19.6964 37.6464 13.0333
rtibia -2.16744
rfoot -23.9414 -43.4744
rtoes 21.5856
lfemur -17.5392 -49.56 8.81893
ltibia -9.75567
lfoot -46.9469 50.4251
ltoes 42.0527
1719
root 0.695569 17.697 9.4738 26.9971 8.54016 -10.2068
lowerback 7.59266 0.839337 5.4599
upperback -9.43223 2.00009 0.195445
thorax -14.5518 0.382119 -3.24161
lowerneck -9.82037 -6.16593 -4.2471
upperneck 23.5224 -9.94227 8.78581
head 9.71557 -4.08854 2.6097
rclavicle 1.2921e-014 1.59028e-015
rhumerus -26.8681 -9.20553 -37.7076
rradius 34.6649
rwrist 7.31896
rhand 62.2312 -39.3422
rfingers 7.12502
rthumb 74.9327 1.18133
lclavicle 1.2921e-014 1.59028e-015
lhumerus -27.4897 -22.7175 49.5484
lradius 55.4572
lwrist 29.6348
lhand 1.86221 -10.4597
lfingers 7.12502
lthumb 27.3728 17.5724
rfemur -19.3228 37.8849 13.2767
rtibia -2.09528
rfoot -24.342 -43.4504
rtoes 22.1318
lfemur -16.9548 -49.8271 8.42279
ltibia -9.74401
lfoot -46.8483 50.6609
ltoes 41.6423
1720
root 0.708966 17.703 9.49383 26.6926 8.51808 -10.2983
lowerback 7.38307 0.863211 5.41252
upperback -9.40662 2.02377 0.302958
thorax -14.3888 0.412658 -3.09289
lowerneck -9.49466 -6.13613 -4.34544
upperneck 23.707 -9.89831 8.766
head 9.71898 -4.08344 2.63601
rclavicle -1.90833e-014 -2.94201e-014
rhumerus -27.7098 -7.73821 -35.3251
rradius 36.9371
rwrist 4.66778
rhand 64.7985 -42.4248
rfingers 7.12502
rthumb 74.9194 7.6432
lclavicle -1.90833e-014 -2.94201e-014
lhumerus -28.178 -24.6867 46.3793
lradius 57.9128
lwrist 32.0821
lhand 7.4146 -10.0545
lfingers 7.12502
lthumb 32.6702 17.0147
rfemur -18.9967 38.1694 13.4589
rtibia -1.9769
rfoot -24.6258 -43.4465
rtoes 22.6042
lfemur -16.3394 -50.0324 7.98363
ltibia -9.75355
lfoot -46.8619 50.8095
ltoes 41.3704
1721
root 0.722299 17.7068 9.51262 26.3872 8.46855 -10.3388
lowerback 7.27632 0.844714 5.37231
upperback -9.46256 1.99782 0.383896
thorax -14.3943 0.409598 -2.97288
lowerneck -9.02007 -6.08432 -4.52262
upperneck 23.9405 -9.82313 8.77104
head 9.71402 -4.07203 2.69291
rclavicle 1.13307e-014 9.54166e-015
rhumerus -27.9775 -4.72145 -33.1457
rradius 37.9767
rwrist 0.612233
rhand 65.6976 -44.0552
rfingers 7.12502
rthumb 74.8141 9.31507
lclavicle 1.13307e-014 9.54166e-015
lhumerus -28.7004 -26.1235 42.9775
lradius 59.9529
lwrist 35.0406
lhand 13.0215 -8.79925
lfingers 7.12502
lthumb 37.9862 17.0037
rfemur -18.7149 38.4551 13.5804
rtibia -1.7822
rfoot -24.0983 -43.8342
rtoes 21.2617
lfemur -15.7698 -50.2423 7.47949
ltibia -9.68637
lfoot -46.7992 51.0091
ltoes 41.014
1722
root 0.737262 17.7107 9.53103 26.0762 8.42033 -10.3114
lowerback 7.25021 0.80822 5.3326
upperback -9.55157 1.94891 0.421145
thorax -14.492 0.388801 -2.90025
lowerneck -8.31272 -6.02372 -4.81712
upperneck 23.9095 -9.73303 8.92284
head 9.58316 -4.06426 2.82702
rclavicle 6.36111e-015 7.95139e-015
rhumerus -28.2883 -2.01382 -30.7507
rradius 39.2642
rwrist -2.3929
rhand 67.199 -45.1949
rfingers 7.12502
rthumb 74.5258 13.5528
lclavicle 6.36111e-015 7.95139e-015
lhumerus -28.9453 -27.2992 39.3423
lradius 61.6243
lwrist 37.4576
lhand 17.7073 -7.18684
lfingers 7.12502
lthumb 42.3936 17.27
rfemur -18.3954 38.7016 13.6427
rtibia -1.61939
rfoot -23.5068 -44.2627
rtoes 19.7329
lfemur -15.1993 -50.4992 6.86348
ltibia -9.55966
lfoot -46.7234 51.2052
ltoes 40.761
1723
root 0.753603 17.7161 9.54848 25.7877 8.39772 -10.2598
lowerback 7.11129 0.787364 5.26169
upperback -9.53514 1.90909 0.4963
thorax -14.3903 0.386708 -2.76528
lowerneck -7.70964 -6.00765 -5.20258
upperneck 23.7438 -9.6732 9.05038
head 9.43046 -4.0811 2.95946
rclavicle 2.5842e-014 7.95139e-016
rhumerus -27.5786 0.280954 -28.0379
rradius 39.1582
rwrist -5.00938
rhand 69.1398 -46.721
rfingers 7.12502
rthumb 73.9562 18.6066
lclavicle 2.5842e-014 7.95139e-016
lhumerus -28.6942 -27.9045 35.5754
lradius 62.7573
lwrist 38.1957
lhand 21.44 -6.34742
lfingers 7.12502
lthumb 45.8741 16.7993
rfemur -18.0767 38.906 13.6751
rtibia -1.48525
rfoot -23.393 -44.4791
rtoes 19.1077
lfemur -14.689 -50.7712 6.27032
ltibia -9.42981
lfoot -46.6081 51.4365
ltoes 40.4413
1724
root 0.768437 17.7214 9.56372 25.4921 8.44743 -10.2655
lowerback 7.00171 0.778167 5.28067
upperback -9.45058 1.89375 0.546166
thorax -14.221 0.387734 -2.71369
lowerneck -7.3555 -6.05568 -5.50882
upperneck 23.6734 -9.72909 9.19883
head 9.36653 -4.13224 3.06558
rclavicle 2.04748e-014 1.19271e-014
rhumerus -27.8946 -0.309387 -24.8531
rradius 40.8649
rwrist -5.60316
rhand 71.9059 -52.0827
rfingers 7.12502
rthumb 72.8037 21.6834
lclavicle 2.04748e-014 1.19271e-014
lhumerus -27.9573 -27.769 31.6255
lradius 63.3705
lwrist 37.7253
lhand 24.8393 -6.41871
lfingers 7.12502
lthumb 49.0136 15.307
rfemur -17.7596 39.0916 13.8346
rtibia -1.30282
rfoot -23.1121 -44.789
rtoes 18.0787
lfemur -14.2598 -51.0528 5.85427
ltibia -9.31704
lfoot -46.4648 51.6942
ltoes 39.9907
1725
root 0.782107 17.7273 9.57661 25.1744 8.5457 -10.2639
lowerback 7.04155 0.769733 5.35022
upperback -9.38049 1.88593 0.502263
thorax -14.1602 0.376471 -2.80017
lowerneck -7.02841 -6.14651 -5.67395
upperneck 23.5803 -9.89395 9.45494
head 9.3088 -4.21147 3.17176
rclavicle 1.59028e-015 4.37326e-014
rhumerus -27.6047 -0.71867 -21.7373
rradius 41.3627
rwrist -6.94798
rhand 72.7689 -55.8831
rfingers 7.12502
rthumb 72.3727 20.2674
lclavicle 1.59028e-015 4.37326e-014
lhumerus -26.8781 -27.1002 27.4764
lradius 63.6923
lwrist 37.6959
lhand 28.436 -6.34045
lfingers 7.12502
lthumb 52.2955 13.588
rfemur -17.3554 39.2469 14.0677
rtibia -1.17509
rfoot -23.0326 -45.0854
rtoes 17.4264
lfemur -13.9255 -51.3746 5.50609
ltibia -9.13161
lfoot -46.1491 52.0707
ltoes 39.3614
1726
root 0.796584 17.7356 9.58838 24.8763 8.6424 -10.2279
lowerback 7.13373 0.771038 5.38522
upperback -9.35696 1.89219 0.454303
thorax -14.188 0.371721 -2.87645
lowerneck -6.52697 -6.26339 -5.84719
upperneck 23.3807 -10.0774 9.6621
head 9.18108 -4.31378 3.26463
rclavicle 1.59028e-014 2.62396e-014
rhumerus -27.2951 -0.957706 -18.5038
rradius 41.95
rwrist -8.36304
rhand 72.9688 -58.1558
rfingers 7.12502
rthumb 72.2685 18.5299
lclavicle 1.59028e-014 2.62396e-014
lhumerus -25.5312 -26.1507 23.3256
lradius 63.6813
lwrist 39.0071
lhand 32.1872 -5.63956
lfingers 7.12502
lthumb 55.6618 12.0093
rfemur -16.85 39.2514 14.3237
rtibia -1.18647
rfoot -23.5611 -45.016
rtoes 18.1781
lfemur -13.6462 -51.6988 5.15033
ltibia -8.93701
lfoot -45.5582 52.6157
ltoes 38.4496
1727
root 0.812256 17.7445 9.59935 24.6186 8.75643 -10.2697
lowerback 7.20329 0.774936 5.52027
upperback -9.36194 1.9229 0.460866
thorax -14.2342 0.370894 -2.95244
lowerneck -5.94722 -6.40135 -6.18944
upperneck 23.1784 -10.2645 9.85101
head 9.04743 -4.43719 3.38204
rclavicle 2.84262e-014 3.97569e-014
rhumerus -26.714 -4.02307 -14.8295
rradius 42.0736
rwrist -6.83335
rhand 74.2512 -60.4168
rfingers 7.12502
rthumb 71.5636 19.5508
lclavicle 2.84262e-014 3.97569e-014
lhumerus -24.0729 -24.8273 19.4214
lradius 63.277
lwrist 40.8785
lhand 35.5472 -4.48555
lfingers 7.12502
lthumb 58.6129 10.6729
rfemur -16.4276 39.2115 14.6167
rtibia -1.19271
rfoot -23.9671 -44.9175
rtoes 18.9661
lfemur -13.3959 -51.9725 4.93424
ltibia -8.82251
lfoot -44.9605 53.1382
ltoes 37.5615
1728
root 0.826676 17.752 9.60909 24.3847 8.90087 -10.3647
lowerback 7.25606 0.790795 5.74869
upperback -9.36326 1.98432 0.483807
thorax -14.2618 0.376624 -3.06772
lowerneck -5.40384 -6.55249 -6.73828
upperneck 22.9796 -10.4751 10.1704
head 8.94468 -4.5761 3.57583
rclavicle 7.35503e-015 1.03368e-014
rhumerus -26.1231 -7.27014 -11.1381
rradius 41.9618
rwrist -5.71768
rhand 75.7102 -62.1004
rfingers 7.12502
rthumb 70.6916 21.291
lclavicle 7.35503e-015 1.03368e-014
lhumerus -22.6072 -23.1699 15.8898
lradius 62.6463
lwrist 42.0791
lhand 37.6828 -3.52929
lfingers 7.12502
lthumb 60.4482 9.77177
rfemur -16.0064 38.5765 15.1405
rtibia -1.14478
rfoot -23.2703 -44.5584
rtoes 18.3562
lfemur -13.1593 -52.2301 4.82349
ltibia -8.75613
lfoot -44.5412 53.527
ltoes 36.952
1729
root 0.839118 17.7595 9.61779 24.1487 9.02 -10.42
lowerback 7.35597 0.82739 5.92107
upperback -9.35742 2.06782 0.491166
thorax -14.3084 0.396913 -3.17458
lowerneck -4.90118 -6.64713 -7.01552
upperneck 22.7251 -10.6007 10.3251
head 8.79952 -4.66734 3.67547
rclavicle 3.97569e-016 3.73715e-014
rhumerus -25.3598 -9.53293 -7.64769
rradius 41.2952
rwrist -6.17792
rhand 76.685 -64.5333
rfingers 7.12502
rthumb 70.0722 20.9701
lclavicle 3.97569e-016 3.73715e-014
lhumerus -21.1444 -21.4723 12.6608
lradius 61.9785
lwrist 42.2939
lhand 38.3946 -3.12201
lfingers 7.12502
lthumb 61.0515 9.50491
rfemur -15.5964 37.9552 15.6132
rtibia -1.08611
rfoot -22.4063 -44.2453
rtoes 17.2346
lfemur -12.8402 -52.4886 4.61338
ltibia -8.73096
lfoot -44.3899 53.739
ltoes 36.7031
1730
root 0.851458 17.7662 9.62397 23.9468 9.10724 -10.4208
lowerback 7.47839 0.850067 5.9822
upperback -9.35436 2.12003 0.512062
thorax -14.3777 0.414072 -3.19915
lowerneck -4.55869 -6.7229 -7.24425
upperneck 22.5727 -10.7 10.4271
head 8.71212 -4.73904 3.74782
rclavicle -3.89618e-014 1.98785e-014
rhumerus -24.3693 -10.877 -4.44685
rradius 40.356
rwrist -6.8459
rhand 77.0186 -68.2946
rfingers 7.12502
rthumb 69.854 17.9007
lclavicle -3.89618e-014 1.98785e-014
lhumerus -19.703 -19.6612 9.71088
lradius 61.1672
lwrist 41.8689
lhand 39.0214 -3.12111
lfingers 7.12502
lthumb 61.5791 8.88719
rfemur -15.2752 37.5511 15.8894
rtibia -1.04604
rfoot -21.8648 -44.0452
rtoes 16.3803
lfemur -12.5419 -52.728 4.35432
ltibia -8.7167
lfoot -44.4902 53.8056
ltoes 36.7504
